<?xml version="1.0" standalone="no"?>
<!DOCTYPE svg PUBLIC "-//W3C//DTD SVG 20010904//EN"
 "http://www.w3.org/TR/2001/REC-SVG-20010904/DTD/svg10.dtd">
<svg version="1.0" xmlns="http://www.w3.org/2000/svg"
 width="512.000000pt" height="512.000000pt" viewBox="0 0 512.000000 512.000000"
 preserveAspectRatio="xMidYMid meet">

<g transform="translate(0.000000,512.000000) scale(0.100000,-0.100000)"
fill="#000000" stroke="none">
<path d="M0 2560 l0 -2560 2560 0 2560 0 0 2560 0 2560 -2560 0 -2560 0 0
-2560z m2295 2430 c403 -38 780 -190 1085 -437 41 -34 90 -77 109 -96 l33 -35
-153 -91 c-85 -49 -305 -180 -489 -289 l-335 -199 -45 19 c-411 176 -880 39
-1125 -328 -30 -44 -68 -114 -86 -154 -32 -77 -68 -228 -69 -290 l0 -35 -238
-140 c-130 -77 -348 -206 -484 -287 -136 -81 -251 -148 -256 -148 -24 0 -72
282 -79 466 -20 534 169 1041 534 1433 401 432 1013 666 1598 611z m2623 -887
c-3 -10 -238 -882 -523 -1938 -285 -1056 -521 -1924 -525 -1928 -8 -9 -598
979 -611 1022 -4 14 -11 39 -16 56 -5 19 -18 33 -36 39 -24 9 -37 5 -85 -23
-305 -175 -633 -262 -992 -262 -461 0 -873 142 -1235 426 -82 65 -162 141
-154 149 2 2 58 35 124 74 66 38 284 167 484 285 l363 216 37 -16 c442 -193
942 -27 1176 391 46 83 91 223 106 328 l12 87 431 256 c237 141 656 391 931
555 275 164 504 299 509 299 4 1 6 -7 4 -16z m-2624 -732 c77 -37 148 -110
184 -189 36 -78 38 -208 3 -294 -32 -81 -107 -160 -189 -200 -61 -30 -76 -33
-162 -33 -86 0 -101 3 -160 31 -84 40 -144 100 -183 182 -29 61 -32 76 -32
162 0 86 3 101 31 160 70 147 199 224 362 216 68 -3 95 -10 146 -35z"/>
<path d="M3500 2326 l-175 -101 -3 -192 -2 -191 171 -209 c94 -114 179 -212
189 -217 45 -21 67 1 363 367 l47 58 0 182 c0 100 -4 187 -8 194 -16 25 -353
213 -380 212 -15 -1 -106 -47 -202 -103z m343 -104 l127 -73 0 -131 0 -130
-130 -159 c-72 -87 -132 -159 -134 -159 -2 0 -62 72 -135 159 l-131 160 0 129
0 129 133 77 c72 41 134 75 137 73 3 -1 63 -35 133 -75z"/>
</g>
</svg>
